# xmcd CD database file
#
# Track frame offsets:
#	180
#	25942
#	58352
#	90102
#	124189
#	167621
#	209334
#	240530
#	277599
#
# Disc length: 4202 seconds
#
# Revision: 0
# Processed by: cddbd v1.5.1PL2 Copyright (c) Steve Scherf et al.
# Submitted via: CDex 1.51
#
DISCID=6e106809
DTITLE=Richie Vitale Quintet - Shake it
DYEAR=1999
DGENRE=Jazz
TTITLE0=Shake it
TTITLE1=Small world
TTITLE2=I believe in you
TTITLE3=Blame it on my youth
TTITLE4=Hara
TTITLE5=Love walked in
TTITLE6=Jive Rhumba
TTITLE7=I hadn't anyone till you
TTITLE8=Silhouette
EXTD=YEAR: 1999
EXTT0=
EXTT1=
EXTT2=
EXTT3=
EXTT4=
EXTT5=
EXTT6=
EXTT7=
EXTT8=
PLAYORDER=
